<svg width="280" height="120" viewBox="0 0 280 120" fill="none" xmlns="http://www.w3.org/2000/svg">
<path opacity="0.45" d="M16.025 82.575C10.5701 77.121 6.85514 70.1719 5.34982 62.6064C3.8445 55.041 4.61647 47.1991 7.56811 40.0724C10.5197 32.9458 15.5185 26.8544 21.9321 22.5688C28.3458 18.2831 35.8863 15.9957 43.6 15.9957C51.3137 15.9957 58.8542 18.2831 65.2679 22.5688C71.6815 26.8544 76.6802 32.9458 79.6319 40.0724C82.5835 47.1991 83.3555 55.041 81.8502 62.6064C80.3448 70.1719 76.6298 77.121 71.175 82.575" stroke="#2E6EF5" stroke-width="5" stroke-linecap="round"/>
<path opacity="0.72" d="M23.8 74.8C19.8844 70.884 17.2179 65.8949 16.1378 60.4635C15.0576 55.0321 15.6123 49.4024 17.7316 44.2862C19.851 39.1701 23.4398 34.7972 28.0443 31.7207C32.6488 28.6441 38.0622 27.002 43.6 27.002C49.1377 27.002 54.5511 28.6441 59.1557 31.7207C63.7602 34.7972 67.349 39.1701 69.4683 44.2862C71.5877 49.4024 72.1423 55.0321 71.0622 60.4635C69.982 65.8949 67.3156 70.884 63.4 74.8" stroke="#2E6EF5" stroke-width="5.25" stroke-linecap="round"/>
<path d="M31.58 67.02C29.2023 64.6426 27.5829 61.6135 26.9268 58.3157C26.2707 55.018 26.6072 51.5997 27.8938 48.4933C29.1804 45.3868 31.3594 42.7316 34.155 40.8635C36.9507 38.9954 40.2376 37.9984 43.6 37.9984C46.9624 37.9984 50.2492 38.9954 53.0449 40.8635C55.8406 42.7316 58.0195 45.3868 59.3062 48.4933C60.5928 51.5997 60.9293 55.018 60.2732 58.3157C59.617 61.6135 57.9977 64.6426 55.62 67.02" stroke="#2E6EF5" stroke-width="5.5" stroke-linecap="round"/>
<path d="M37.6 57C38.2666 62.3333 39.6 66.3333 41.6 69V93C41.6 94.3333 42.2666 95 43.6 95C44.9333 95 45.6 94.3333 45.6 93V69C47.6 66.3333 48.9333 62.3333 49.6 57H37.6Z" fill="#2E6EF5"/>
<path d="M43.6 62C47.466 62 50.6 58.866 50.6 55C50.6 51.134 47.466 48 43.6 48C39.734 48 36.6 51.134 36.6 55C36.6 58.866 39.734 62 43.6 62Z" fill="#2E6EF5"/>
<path d="M245.839 74.7159C243.903 74.7159 242.147 74.3513 240.569 73.6222C238.991 72.8797 237.738 71.8125 236.81 70.4205C235.882 69.0152 235.418 67.3182 235.418 65.3295C235.418 63.5795 235.763 62.161 236.452 61.0739C237.142 59.9735 238.063 59.1117 239.217 58.4886C240.37 57.8655 241.643 57.4015 243.035 57.0966C244.44 56.7784 245.852 56.5265 247.271 56.3409C249.127 56.1023 250.631 55.9233 251.785 55.804C252.951 55.6714 253.8 55.4527 254.33 55.1477C254.874 54.8428 255.146 54.3125 255.146 53.5568V53.3977C255.146 51.4356 254.609 49.911 253.535 48.8239C252.474 47.7367 250.863 47.1932 248.702 47.1932C246.462 47.1932 244.705 47.6837 243.433 48.6648C242.16 49.6458 241.265 50.6932 240.748 51.8068L236.293 50.2159C237.089 48.3599 238.149 46.9148 239.475 45.8807C240.814 44.8333 242.272 44.1042 243.85 43.6932C245.441 43.2689 247.005 43.0568 248.543 43.0568C249.524 43.0568 250.651 43.1761 251.924 43.4148C253.21 43.6402 254.45 44.1108 255.643 44.8267C256.849 45.5426 257.85 46.6231 258.646 48.0682C259.441 49.5133 259.839 51.4489 259.839 53.875V74H255.146V69.8636H254.907C254.589 70.5265 254.058 71.2358 253.316 71.9915C252.574 72.7472 251.586 73.3902 250.353 73.9205C249.12 74.4508 247.615 74.7159 245.839 74.7159ZM246.555 70.5C248.411 70.5 249.975 70.1354 251.248 69.4063C252.534 68.6771 253.502 67.7358 254.151 66.5824C254.814 65.429 255.146 64.2159 255.146 62.9432V58.6477C254.947 58.8864 254.509 59.1051 253.833 59.304C253.17 59.4896 252.401 59.6553 251.526 59.8011C250.665 59.9337 249.823 60.053 249.001 60.1591C248.192 60.2519 247.536 60.3314 247.032 60.3977C245.812 60.5568 244.672 60.8153 243.612 61.1733C242.564 61.518 241.716 62.0417 241.066 62.7443C240.43 63.4337 240.112 64.375 240.112 65.5682C240.112 67.1989 240.715 68.4318 241.921 69.267C243.141 70.089 244.685 70.5 246.555 70.5Z" fill="#2E6EF5"/>
<path d="M231.585 43.4545L220.29 74H215.517L204.222 43.4545H209.312L217.744 67.7954H218.062L226.494 43.4545H231.585Z" fill="#2E6EF5"/>
<path d="M200.413 43.4545L189.118 74H184.345L173.05 43.4545H178.141L186.572 67.7954H186.891L195.322 43.4545H200.413Z" fill="#2E6EF5"/>
<path d="M155.525 74.6364C152.767 74.6364 150.348 73.9801 148.266 72.6676C146.198 71.3551 144.581 69.5189 143.414 67.1591C142.261 64.7992 141.684 62.0417 141.684 58.8864C141.684 55.7046 142.261 52.9271 143.414 50.554C144.581 48.1809 146.198 46.3381 148.266 45.0256C150.348 43.7131 152.767 43.0568 155.525 43.0568C158.282 43.0568 160.695 43.7131 162.763 45.0256C164.845 46.3381 166.462 48.1809 167.616 50.554C168.782 52.9271 169.366 55.7046 169.366 58.8864C169.366 62.0417 168.782 64.7992 167.616 67.1591C166.462 69.5189 164.845 71.3551 162.763 72.6676C160.695 73.9801 158.282 74.6364 155.525 74.6364ZM155.525 70.4205C157.62 70.4205 159.343 69.8835 160.695 68.8097C162.048 67.7358 163.049 66.3239 163.698 64.5739C164.348 62.8239 164.673 60.928 164.673 58.8864C164.673 56.8447 164.348 54.9422 163.698 53.179C163.049 51.4157 162.048 49.9905 160.695 48.9034C159.343 47.8163 157.62 47.2727 155.525 47.2727C153.43 47.2727 151.707 47.8163 150.354 48.9034C149.002 49.9905 148.001 51.4157 147.352 53.179C146.702 54.9422 146.377 56.8447 146.377 58.8864C146.377 60.928 146.702 62.8239 147.352 64.5739C148.001 66.3239 149.002 67.7358 150.354 68.8097C151.707 69.8835 153.43 70.4205 155.525 70.4205Z" fill="#2E6EF5"/>
<path d="M93.9318 33.2727H99.8182L113.659 67.0796H114.136L127.977 33.2727H133.864V74H129.25V43.0568H128.852L116.125 74H111.67L98.9432 43.0568H98.5455V74H93.9318V33.2727Z" fill="#2E6EF5"/>
</svg>
