<svg width="258" height="82" viewBox="0 0 258 82" fill="none" xmlns="http://www.w3.org/2000/svg">
<path opacity="0.45" d="M13.925 69.0793C8.47016 63.6253 4.75516 56.6762 3.24984 49.1108C1.74452 41.5453 2.51649 33.7034 5.46813 26.5768C8.41977 19.4501 13.4185 13.3588 19.8321 9.07311C26.2458 4.78746 33.7863 2.5 41.5 2.5C49.2137 2.5 56.7542 4.78746 63.1679 9.07311C69.5815 13.3588 74.5803 19.4501 77.5319 26.5768C80.4835 33.7034 81.2555 41.5453 79.7502 49.1108C78.2449 56.6762 74.5299 63.6253 69.075 69.0793" stroke="#2E6EF5" stroke-width="5" stroke-linecap="round"/>
<path opacity="0.72" d="M21.7 61.3043C17.7844 57.3883 15.118 52.3992 14.0378 46.9678C12.9577 41.5364 13.5123 35.9067 15.6317 30.7906C17.751 25.6744 21.3398 21.3016 25.9443 18.225C30.5489 15.1484 35.9623 13.5063 41.5 13.5063C47.0378 13.5063 52.4512 15.1484 57.0557 18.225C61.6602 21.3016 65.249 25.6744 67.3684 30.7906C69.4877 35.9067 70.0424 41.5364 68.9622 46.9678C67.8821 52.3992 65.2156 57.3883 61.3 61.3043" stroke="#2E6EF5" stroke-width="5.25" stroke-linecap="round"/>
<path d="M29.48 53.5243C27.1023 51.1469 25.483 48.1178 24.8268 44.8201C24.1707 41.5223 24.5072 38.1041 25.7938 34.9976C27.0805 31.8911 29.2594 29.2359 32.0551 27.3679C34.8508 25.4998 38.1376 24.5027 41.5 24.5027C44.8624 24.5027 48.1493 25.4998 50.9449 27.3679C53.7406 29.2359 55.9196 31.8911 57.2062 34.9976C58.4928 38.1041 58.8293 41.5223 58.1732 44.8201C57.5171 48.1178 55.8977 51.1469 53.52 53.5243" stroke="#2E6EF5" stroke-width="5.5" stroke-linecap="round"/>
<path d="M35.5 43.5043C36.1667 48.8377 37.5 52.8377 39.5 55.5043V79.5043C39.5 80.8377 40.1667 81.5043 41.5 81.5043C42.8333 81.5043 43.5 80.8377 43.5 79.5043V55.5043C45.5 52.8377 46.8333 48.8377 47.5 43.5043H35.5Z" fill="#2E6EF5"/>
<path d="M41.5 48.5043C45.366 48.5043 48.5 45.3703 48.5 41.5043C48.5 37.6383 45.366 34.5043 41.5 34.5043C37.634 34.5043 34.5 37.6383 34.5 41.5043C34.5 45.3703 37.634 48.5043 41.5 48.5043Z" fill="#2E6EF5"/>
<path d="M243.739 61.2202C241.803 61.2202 240.047 60.8557 238.469 60.1265C236.891 59.3841 235.638 58.3168 234.71 56.9248C233.782 55.5195 233.318 53.8225 233.318 51.8339C233.318 50.0839 233.663 48.6653 234.352 47.5782C235.042 46.4778 235.963 45.6161 237.117 44.993C238.27 44.3699 239.543 43.9059 240.935 43.6009C242.34 43.2827 243.752 43.0309 245.171 42.8452C247.027 42.6066 248.531 42.4276 249.685 42.3083C250.851 42.1757 251.7 41.957 252.23 41.6521C252.774 41.3471 253.046 40.8168 253.046 40.0612V39.9021C253.046 37.9399 252.509 36.4153 251.435 35.3282C250.374 34.2411 248.763 33.6975 246.602 33.6975C244.362 33.6975 242.605 34.1881 241.333 35.1691C240.06 36.1502 239.165 37.1975 238.648 38.3112L234.193 36.7202C234.989 34.8642 236.049 33.4191 237.375 32.385C238.714 31.3377 240.173 30.6085 241.75 30.1975C243.341 29.7733 244.905 29.5612 246.443 29.5612C247.424 29.5612 248.551 29.6805 249.824 29.9191C251.11 30.1445 252.35 30.6151 253.543 31.331C254.749 32.047 255.75 33.1274 256.546 34.5725C257.341 36.0176 257.739 37.9532 257.739 40.3793V60.5043H253.046V56.368H252.807C252.489 57.0309 251.959 57.7401 251.216 58.4958C250.474 59.2515 249.486 59.8945 248.253 60.4248C247.02 60.9551 245.515 61.2202 243.739 61.2202ZM244.455 57.0043C246.311 57.0043 247.875 56.6398 249.148 55.9106C250.434 55.1814 251.402 54.2401 252.051 53.0867C252.714 51.9333 253.046 50.7202 253.046 49.4475V45.1521C252.847 45.3907 252.409 45.6095 251.733 45.8083C251.07 45.9939 250.301 46.1596 249.426 46.3055C248.565 46.4381 247.723 46.5574 246.901 46.6634C246.092 46.7562 245.436 46.8358 244.932 46.9021C243.712 47.0612 242.572 47.3197 241.512 47.6776C240.464 48.0223 239.616 48.546 238.966 49.2487C238.33 49.938 238.012 50.8793 238.012 52.0725C238.012 53.7032 238.615 54.9362 239.821 55.7714C241.041 56.5934 242.585 57.0043 244.455 57.0043Z" fill="#0D1020"/>
<path d="M229.485 29.9589L218.19 60.5043H213.417L202.122 29.9589H207.213L215.644 54.2998H215.963L224.394 29.9589H229.485Z" fill="#0D1020"/>
<path d="M198.313 29.9589L187.018 60.5043H182.245L170.95 29.9589H176.041L184.472 54.2998H184.791L193.222 29.9589H198.313Z" fill="#0D1020"/>
<path d="M153.425 61.1407C150.667 61.1407 148.248 60.4845 146.166 59.172C144.098 57.8595 142.481 56.0233 141.314 53.6634C140.161 51.3036 139.584 48.546 139.584 45.3907C139.584 42.2089 140.161 39.4314 141.314 37.0583C142.481 34.6852 144.098 32.8424 146.166 31.5299C148.248 30.2174 150.667 29.5612 153.425 29.5612C156.182 29.5612 158.595 30.2174 160.664 31.5299C162.745 32.8424 164.362 34.6852 165.516 37.0583C166.682 39.4314 167.266 42.2089 167.266 45.3907C167.266 48.546 166.682 51.3036 165.516 53.6634C164.362 56.0233 162.745 57.8595 160.664 59.172C158.595 60.4845 156.182 61.1407 153.425 61.1407ZM153.425 56.9248C155.52 56.9248 157.243 56.3879 158.595 55.314C159.948 54.2401 160.949 52.8282 161.598 51.0782C162.248 49.3282 162.573 47.4324 162.573 45.3907C162.573 43.349 162.248 41.4466 161.598 39.6833C160.949 37.9201 159.948 36.4949 158.595 35.4077C157.243 34.3206 155.52 33.7771 153.425 33.7771C151.33 33.7771 149.607 34.3206 148.254 35.4077C146.902 36.4949 145.901 37.9201 145.252 39.6833C144.602 41.4466 144.277 43.349 144.277 45.3907C144.277 47.4324 144.602 49.3282 145.252 51.0782C145.901 52.8282 146.902 54.2401 148.254 55.314C149.607 56.3879 151.33 56.9248 153.425 56.9248Z" fill="#0D1020"/>
<path d="M91.8318 19.7771H97.7182L111.559 53.5839H112.036L125.877 19.7771H131.764V60.5043H127.15V29.5612H126.752L114.025 60.5043H109.57L96.8432 29.5612H96.4455V60.5043H91.8318V19.7771Z" fill="#0D1020"/>
</svg>
