<svg width="240" height="200" viewBox="0 0 240 200" fill="none" xmlns="http://www.w3.org/2000/svg">
<path opacity="0.45" d="M64.85 151.15C53.9403 140.242 46.5103 126.344 43.4996 111.213C40.489 96.082 42.0329 80.3982 47.9362 66.1449C53.8395 51.8915 63.8369 39.7088 76.6642 31.1376C89.4915 22.5663 104.573 17.9913 120 17.9913C135.427 17.9913 150.508 22.5663 163.336 31.1376C176.163 39.7088 186.161 51.8915 192.064 66.1449C197.967 80.3982 199.511 96.082 196.5 111.213C193.49 126.344 186.06 140.242 175.15 151.15" stroke="#2E6EF5" stroke-width="10" stroke-linecap="round"/>
<path opacity="0.72" d="M80.4 135.6C72.5688 127.768 67.2359 117.79 65.0756 106.927C62.9153 96.0642 64.0246 84.8048 68.2633 74.5724C72.502 64.3401 79.6796 55.5944 88.8887 49.4413C98.0977 43.2882 108.924 40.004 120 40.004C131.076 40.004 141.902 43.2882 151.111 49.4413C160.32 55.5944 167.498 64.3401 171.737 74.5724C175.975 84.8048 177.085 96.0642 174.924 106.927C172.764 117.79 167.431 127.768 159.6 135.6" stroke="#2E6EF5" stroke-width="10.5" stroke-linecap="round"/>
<path d="M95.96 120.04C91.2046 115.285 87.9659 109.227 86.6536 102.632C85.3414 96.036 86.0144 89.1995 88.5877 82.9866C91.1609 76.7736 95.5188 71.4633 101.11 67.7271C106.701 63.9909 113.275 61.9967 120 61.9967C126.725 61.9967 133.298 63.9909 138.89 67.7271C144.481 71.4633 148.839 76.7736 151.412 82.9866C153.986 89.1995 154.659 96.036 153.346 102.632C152.034 109.227 148.795 115.285 144.04 120.04" stroke="#2E6EF5" stroke-width="11" stroke-linecap="round"/>
<path d="M108 100C109.333 110.667 112 118.667 116 124V172C116 174.667 117.333 176 120 176C122.667 176 124 174.667 124 172V124C128 118.667 130.667 110.667 132 100H108Z" fill="#2E6EF5"/>
<path d="M120 110C127.732 110 134 103.732 134 96C134 88.268 127.732 82 120 82C112.268 82 106 88.268 106 96C106 103.732 112.268 110 120 110Z" fill="#2E6EF5"/>
</svg>
